<svg width="41" height="32" viewBox="0 0 41 32" fill="none" xmlns="http://www.w3.org/2000/svg">
<path d="M14.7069 18.2171C14.3708 17.9303 13.8658 17.9704 13.5791 18.3065C13.2924 18.6427 13.3324 19.1477 13.6685 19.4345C14.6535 20.2746 15.2184 21.4978 15.2184 22.7905C15.2184 25.2218 13.2404 27.1998 10.8091 27.1998C8.3778 27.1998 6.3998 25.2218 6.3998 22.7905C6.3998 21.498 6.96452 20.2749 7.94924 19.4348C8.28532 19.148 8.32532 18.6431 8.0386 18.3069C7.75188 17.9709 7.24692 17.9309 6.91076 18.2176C5.56924 19.3621 4.7998 21.0289 4.7998 22.7905C4.7998 26.1041 7.49556 28.7998 10.8091 28.7998C14.1226 28.7998 16.8184 26.1041 16.8184 22.7905C16.8184 21.0287 16.0488 19.3617 14.7069 18.2171Z" fill="white"/>
<path d="M30.1509 16.7816C26.8374 16.7816 24.1416 19.4773 24.1416 22.7908C24.1416 26.1044 26.8374 28.8002 30.1509 28.8002C33.4644 28.8002 36.1602 26.1044 36.1602 22.7908C36.1602 19.4773 33.4645 16.7816 30.1509 16.7816ZM30.1509 27.2002C27.7196 27.2002 25.7416 25.2221 25.7416 22.7908C25.7416 20.3596 27.7196 18.3816 30.1509 18.3816C32.5822 18.3816 34.5602 20.3596 34.5602 22.7908C34.5602 25.2221 32.5822 27.2002 30.1509 27.2002Z" fill="white"/>
<path d="M36.96 0C34.7544 0 32.96 1.7944 32.96 4C32.96 4.44176 33.3182 4.8 33.76 4.8C34.2018 4.8 34.56 4.44176 34.56 4C34.56 2.67664 35.6366 1.6 36.96 1.6C38.2834 1.6 39.36 2.67664 39.36 4V21.0307C39.36 21.1722 39.3227 21.305 39.258 21.4205C38.5943 16.9899 34.7633 13.5814 30.1508 13.5814C25.3423 13.5814 21.3834 17.2858 20.9766 21.9906H19.9835C19.5767 17.2858 15.6178 13.5814 10.8094 13.5814C6.19688 13.5814 2.36576 16.99 1.70208 21.4206C1.63736 21.3051 1.6 21.1722 1.6 21.0307V4C1.6 2.67664 2.67664 1.6 4 1.6C5.32336 1.6 6.4 2.67664 6.4 4C6.4 4.44176 6.75816 4.8 7.2 4.8C7.64184 4.8 8 4.44176 8 4C8 1.7944 6.2056 0 4 0C1.7944 0 0 1.7944 0 4V21.0307C0 22.0789 0.67576 22.9717 1.61424 23.2979C1.87848 28.141 5.90152 32 10.8094 32C15.6178 32 19.5767 28.2955 19.9835 23.5907H20.9766C21.3834 28.2954 25.3423 32 30.1507 32C35.0585 32 39.0816 28.141 39.3458 23.298C40.2843 22.9718 40.96 22.079 40.96 21.0308V4C40.96 1.7944 39.1656 0 36.96 0ZM10.8094 30.4C6.61352 30.4 3.2 26.9865 3.2 22.7906C3.2 18.5948 6.61352 15.1814 10.8093 15.1814C15.0049 15.1814 18.4182 18.5946 18.4186 22.79V22.7906C18.4186 22.7906 18.4186 22.791 18.4186 22.7913C18.4183 26.9868 15.0049 30.4 10.8094 30.4ZM30.1507 30.4C25.955 30.4 22.5414 26.9865 22.5414 22.7907C22.5414 18.595 25.955 15.1814 30.1507 15.1814C34.3465 15.1814 37.76 18.595 37.76 22.7907C37.76 26.9865 34.3465 30.4 30.1507 30.4Z" fill="white"/>
<path d="M10.809 18.3816C11.2509 18.3816 11.609 18.0233 11.609 17.5816C11.609 17.1398 11.2509 16.7816 10.809 16.7816H10.8085C10.3666 16.7816 10.0088 17.1398 10.0088 17.5816C10.0088 18.0233 10.3672 18.3816 10.809 18.3816Z" fill="white"/>
</svg>
