<svg width="36" height="36" viewBox="0 0 36 36" fill="none" xmlns="http://www.w3.org/2000/svg">
<path d="M14.0013 15.3333C14.7376 15.3333 15.3346 14.7363 15.3346 14C15.3346 12.5296 16.5309 11.3333 18.0013 11.3333C19.4717 11.3333 20.668 12.5296 20.668 14C20.668 15.4704 19.4717 16.6667 18.0013 16.6667C17.265 16.6667 16.668 17.2637 16.668 18L16.668 19.7808C16.668 20.5171 17.265 21.1142 18.0013 21.1142C18.7376 21.1142 19.3346 20.5171 19.3346 19.7808L19.3346 19.1646C21.6324 18.5711 23.3346 16.4805 23.3346 14C23.3346 11.0592 20.9421 8.66663 18.0013 8.66663C15.0605 8.66663 12.668 11.0592 12.668 14C12.668 14.7363 13.265 15.3333 14.0013 15.3333Z" fill="#19B200"/>
<path d="M18.0018 23.3333L18.0009 23.3333C17.2646 23.3333 16.668 23.9304 16.668 24.6667C16.668 25.4029 17.2654 26 18.0018 26C18.7382 26 19.3352 25.4029 19.3352 24.6667C19.3352 23.9304 18.7381 23.3333 18.0018 23.3333Z" fill="#19B200"/>
<rect x="34" y="34" width="32" height="32" rx="4" transform="rotate(-180 34 34)" stroke="#19B200" stroke-width="3"/>
</svg>
