<svg width="88" height="88" viewBox="0 0 88 88" fill="none" xmlns="http://www.w3.org/2000/svg">
<g clip-path="url(#clip0)">
<path d="M24.2627 81.125C30.8967 81.125 36.2939 75.728 36.2939 69.0938C36.2939 62.4595 30.8967 57.0625 24.2627 57.0625C17.6287 57.0625 12.2314 62.4595 12.2314 69.0938C12.2314 75.728 17.6287 81.125 24.2627 81.125ZM24.2627 60.5C29.0013 60.5 32.8564 64.3552 32.8564 69.0938C32.8564 73.8323 29.0013 77.6875 24.2627 77.6875C19.5241 77.6875 15.6689 73.8323 15.6689 69.0938C15.6689 64.3552 19.5241 60.5 24.2627 60.5Z" fill="white"/>
<path d="M54.8046 65.2114C53.8383 61.6057 50.2373 58.7813 46.6065 58.7813H40.1009C38.7823 56.7631 37.0893 55.0112 35.1205 53.6252H44.8883C45.8375 53.6252 46.607 52.8556 46.607 51.9065V46.7502C46.607 42.9594 43.5229 39.8753 39.732 39.8753H31.1378V36.4376C31.1378 36.2425 31.1277 36.0499 31.1117 35.8587C35.1935 34.4375 38.0129 30.5767 38.0129 26.1253C38.0129 20.439 33.3868 15.8129 27.7005 15.8129C22.0142 15.8129 17.388 20.439 17.388 26.1253C17.388 28.1904 18.0014 30.1774 19.135 31.8649C19.0052 32.0101 18.8809 32.1604 18.7639 32.3162C17.9014 31.6669 16.8294 31.2814 15.6691 31.2814H12.2316H6.18749C5.23823 31.2814 4.46875 32.051 4.46875 33.0001C4.46875 33.9492 5.23823 34.7189 6.18749 34.7189H10.5131V56.1062C9.27951 57.4173 8.21836 58.9179 7.37704 60.5842C6.94924 61.4318 7.28938 62.4652 8.13672 62.8932C8.98406 63.3206 10.0177 62.9809 10.4457 62.1335C13.0953 56.8855 18.3897 53.6252 24.263 53.6252C32.7924 53.6252 39.7317 60.5645 39.7317 69.0939C39.7317 77.6233 32.7924 84.5626 24.263 84.5626C18.3892 84.5626 13.0944 81.302 10.445 76.0531C10.0174 75.2058 8.98355 74.8658 8.1362 75.2931C7.28869 75.7209 6.94855 76.7545 7.37635 77.602C10.6136 84.0157 17.0842 88.0001 24.263 88.0001C33.5143 88.0001 41.234 81.3207 42.8552 72.5312H42.8949L44.3957 78.1323C45.3619 81.738 48.9629 84.5624 52.5936 84.5624H57.7498C58.2841 84.5624 58.7881 84.3139 59.1134 83.8901C59.4388 83.466 59.5483 82.915 59.4101 82.3989L54.8046 65.2114ZM39.7322 43.3128C41.6276 43.3128 43.1697 44.8548 43.1697 46.7502V50.1877H24.2628C22.3674 50.1877 20.8253 48.6457 20.8253 46.7502V36.4376C20.8253 34.5422 22.3674 33.0001 24.2628 33.0001C26.1583 33.0001 27.7003 34.5422 27.7003 36.4376V41.594C27.7003 42.5431 28.4698 43.3128 29.4191 43.3128H39.7322ZM27.7005 19.2504C31.4913 19.2504 34.5755 22.3345 34.5755 26.1253C34.5755 29.0941 32.6955 31.6688 29.974 32.6153C28.739 30.7759 26.64 29.5628 24.2628 29.5628C23.4662 29.5628 22.7015 29.7005 21.9894 29.9507C21.2342 28.8262 20.8255 27.5017 20.8255 26.1255C20.8255 22.3345 23.9096 19.2504 27.7005 19.2504ZM17.3879 36.4376V46.7502C17.3879 48.3415 17.9327 49.8069 18.8438 50.9734C17.1036 51.4897 15.4575 52.2516 13.9504 53.2318V34.7189H15.6691C16.617 34.7189 17.3879 35.4899 17.3879 36.4376ZM52.5934 81.1249C50.5493 81.1249 48.2701 79.3106 47.7158 77.2426L45.8736 70.3677C45.6724 69.6162 44.9914 69.0937 44.2135 69.0937H43.169C43.169 66.6695 42.7098 64.3505 41.8746 62.2188H46.6063C48.6506 62.2188 50.9298 64.0331 51.4839 66.1011L55.5096 81.1249H52.5934Z" fill="white"/>
<path d="M24.2634 70.8125C25.2126 70.8125 25.9821 70.0428 25.9821 69.0938C25.9821 68.1447 25.2126 67.375 24.2634 67.375H24.2622C23.3129 67.375 22.5439 68.1447 22.5439 69.0938C22.5439 70.0428 23.3141 70.8125 24.2634 70.8125Z" fill="white"/>
<path d="M80.0938 0H50.8742C48.9788 0 47.4367 1.54206 47.4367 3.43733V20.0585L45.0038 22.4914C44.3558 23.1394 43.999 24.0025 43.999 24.9222C43.999 25.8416 44.3558 26.7047 45.0038 27.3529L47.4367 29.7856V32.6566C47.4367 34.5519 48.9788 36.0939 50.8742 36.0939H80.0938C81.9893 36.0939 83.5313 34.5519 83.5313 32.6566V3.43733C83.5313 1.54206 81.9893 0 80.0938 0V0ZM50.8744 32.6568V29.0737C50.8744 28.6179 50.6934 28.1808 50.3709 27.8584L47.4346 24.9222L50.3709 21.9859C50.6932 21.6635 50.8744 21.2264 50.8744 20.7706V3.4375L80.094 3.43733V32.6564L50.8744 32.6568Z" fill="white"/>
<path d="M65.4834 7.73499C64.5341 7.73499 63.7646 8.50516 63.7646 9.45442C63.7646 10.4037 64.5341 11.1732 65.4834 11.1732C66.4327 11.1732 67.2021 10.4035 67.2021 9.45442V9.45322C67.2021 8.50413 66.4327 7.73499 65.4834 7.73499Z" fill="white"/>
<path d="M65.4834 15.4695C64.5341 15.4695 63.7646 16.2391 63.7646 17.1882V26.6407C63.7646 27.5898 64.5341 28.3594 65.4834 28.3594C66.4327 28.3594 67.2021 27.5898 67.2021 26.6407V17.1882C67.2021 16.239 66.4327 15.4695 65.4834 15.4695Z" fill="white"/>
<path d="M8.79395 69.0923C8.79395 68.1432 8.02446 67.3735 7.0752 67.3735C6.12593 67.3735 5.35645 68.1432 5.35645 69.0923V69.0937C5.35645 70.0428 6.12593 70.8117 7.0752 70.8117C8.02446 70.8117 8.79395 70.0416 8.79395 69.0923Z" fill="white"/>
</g>
<defs>
<clipPath id="clip0">
<rect width="88" height="88" fill="white"/>
</clipPath>
</defs>
</svg>
