<svg width="88" height="88" viewBox="0 0 88 88" fill="none" xmlns="http://www.w3.org/2000/svg">
<path d="M78.6268 50.1435C77.1128 49.5407 75.5451 49.4582 74.2592 49.8516C73.9008 49.4259 73.4813 49.0423 73.0088 48.7076V5.15623C73.0088 2.31308 70.6957 0 67.8526 0H46.4726C45.5235 0 44.7539 0.769653 44.7539 1.71874C44.7539 2.66783 45.5235 3.43749 46.4726 3.43749H67.8524C68.8001 3.43749 69.5711 4.20851 69.5711 5.15623V47.394C68.5866 47.2771 67.6124 47.3617 66.7381 47.6455C65.8784 46.695 64.7124 45.99 63.324 45.6362C62.2996 45.3748 61.2892 45.3429 60.3796 45.5118L60.1627 35.3747C60.093 32.1156 57.6272 29.5629 54.5497 29.5629C51.4544 29.5629 48.9362 32.1866 48.9362 35.4114V60.8157C48.6899 60.502 48.4662 60.1801 48.2383 59.8528C47.1654 58.3109 45.9494 56.5635 42.5972 55.8287C39.7435 55.2021 37.2582 56.6326 36.1569 58.2257C35.236 59.5581 35.1542 61.0728 35.9384 62.2778C36.1514 62.6051 36.3963 62.9253 36.6557 63.264C37.0312 63.7547 37.4705 64.3307 37.9416 65.1024H9.62498C8.67726 65.1024 7.90624 64.3315 7.90624 63.3838V5.15623C7.90624 4.20851 8.67726 3.43749 9.62498 3.43749H31.0039C31.953 3.43749 32.7227 2.66783 32.7227 1.71874C32.7227 0.769653 31.953 0 31.0039 0H9.62498C6.78183 0 4.46875 2.31308 4.46875 5.15623V63.3838C4.46875 66.227 6.78183 68.5399 9.62498 68.5399H39.5777C39.6208 68.6554 39.6641 68.7692 39.7073 68.8895C41.3036 73.3444 44.0488 75.3456 46.2545 76.9536C47.0185 77.5105 47.7402 78.0366 48.3349 78.6057C49.4073 79.632 51.5668 83.6535 51.5881 86.2416C51.596 87.1838 52.3608 87.9441 53.3032 87.9462L77.8579 88H77.8617C78.8071 88 79.5756 87.2358 79.5802 86.2899C79.5876 84.788 80.3705 82.3776 81.1993 79.826C82.2921 76.4616 83.5308 72.6478 83.5308 69.2932V57.6781C83.5309 54.183 81.6975 51.3664 78.6268 50.1435V50.1435ZM80.0934 69.293C80.0934 72.1037 78.944 75.6419 77.9301 78.764C77.228 80.9257 76.5962 82.8704 76.3079 84.5591L54.8499 84.5122C54.2368 81.2117 52.1534 77.5019 50.7112 76.1221C49.9505 75.3944 49.1009 74.775 48.2795 74.1761C46.1728 72.6403 44.1831 71.1898 42.9433 67.7302C41.6593 64.1468 40.2908 62.3586 39.3855 61.1751C39.1731 60.8977 38.9878 60.6553 38.8489 60.4475C38.8788 60.3222 39.0377 60.0309 39.4185 59.7346C40.0995 59.2054 41.0125 59.0002 41.8609 59.1866C43.8974 59.633 44.4692 60.4549 45.4166 61.8165C46.1821 62.9167 47.1097 64.2497 48.9361 65.4154V65.8002C48.9361 66.7493 49.7057 67.5189 50.6548 67.5189C51.6039 67.5189 52.3736 66.7493 52.3736 65.8002V35.4113C52.3736 34.0818 53.3498 33.0002 54.5495 33.0002C55.7205 33.0002 56.6969 34.0985 56.7258 35.448L57.1152 53.6538C57.1353 54.5904 57.9007 55.3358 58.8329 55.3358C58.8453 55.3358 58.8579 55.3356 58.8704 55.3355C59.8193 55.3152 60.5723 54.5294 60.552 53.5803L60.4554 49.0698C60.8184 48.8728 61.558 48.7334 62.4746 48.967C63.2125 49.1552 64.9285 49.8245 64.9285 51.9734C64.9285 52.9225 65.6981 53.6922 66.6472 53.6922C67.5963 53.6922 68.3659 52.9225 68.3659 51.9734C68.3659 51.5742 68.3324 51.1845 68.2675 50.8073C68.9481 50.7175 69.7643 50.8463 70.4824 51.194C71.1627 51.5236 72.3041 52.3213 72.3041 53.961C72.3041 54.9101 73.0738 55.6797 74.0228 55.6797C74.9719 55.6797 75.7416 54.9101 75.7416 53.961C75.7416 53.6545 75.721 53.3527 75.6806 53.0574C76.1314 53.0195 76.7239 53.0856 77.355 53.3371C78.1784 53.665 80.0934 54.7444 80.0934 57.6779V69.293Z" fill="black"/>
<path d="M14.7829 8.59448H14.7815C13.8324 8.59448 13.0635 9.36414 13.0635 10.3132C13.0635 11.2623 13.8336 12.032 14.7829 12.032C15.7322 12.032 16.5017 11.2623 16.5017 10.3132C16.5017 9.36414 15.732 8.59448 14.7829 8.59448V8.59448Z" fill="black"/>
<path d="M21.6579 8.59448H21.6565C20.7074 8.59448 19.9385 9.36414 19.9385 10.3132C19.9385 11.2623 20.7086 12.032 21.6579 12.032C22.6072 12.032 23.3767 11.2623 23.3767 10.3132C23.3767 9.36414 22.607 8.59448 21.6579 8.59448V8.59448Z" fill="black"/>
<path d="M28.5329 8.59448H28.5315C27.5824 8.59448 26.8135 9.36414 26.8135 10.3132C26.8135 11.2623 27.5836 12.032 28.5329 12.032C29.4822 12.032 30.2517 11.2623 30.2517 10.3132C30.2517 9.36414 29.482 8.59448 28.5329 8.59448V8.59448Z" fill="black"/>
<path d="M42.2829 12.032C43.232 12.032 44.0017 11.2623 44.0017 10.3132C44.0017 9.36414 43.232 8.59448 42.2829 8.59448H42.2817C41.3326 8.59448 40.5635 9.36414 40.5635 10.3132C40.5635 11.2623 41.3336 12.032 42.2829 12.032V12.032Z" fill="black"/>
<path d="M49.1579 12.0316C50.107 12.0316 50.8767 11.262 50.8767 10.3129C50.8767 9.36377 50.107 8.59412 49.1579 8.59412H49.1567C48.2076 8.59412 47.4385 9.36377 47.4385 10.3129C47.4385 11.262 48.2086 12.0316 49.1579 12.0316Z" fill="black"/>
<path d="M56.0329 12.0316C56.982 12.0316 57.7517 11.262 57.7517 10.3129C57.7517 9.36377 56.982 8.59412 56.0329 8.59412H56.0317C55.0826 8.59412 54.3135 9.36377 54.3135 10.3129C54.3135 11.262 55.0836 12.0316 56.0329 12.0316Z" fill="black"/>
<path d="M14.7829 15.4695H14.7815C13.8324 15.4695 13.0635 16.2391 13.0635 17.1882C13.0635 18.1373 13.8336 18.907 14.7829 18.907C15.7322 18.907 16.5017 18.1373 16.5017 17.1882C16.5017 16.2391 15.732 15.4695 14.7829 15.4695V15.4695Z" fill="black"/>
<path d="M28.5329 15.4695H28.5315C27.5824 15.4695 26.8135 16.2391 26.8135 17.1882C26.8135 18.1373 27.5836 18.907 28.5329 18.907C29.4822 18.907 30.2517 18.1373 30.2517 17.1882C30.2517 16.2391 29.482 15.4695 28.5329 15.4695V15.4695Z" fill="black"/>
<path d="M35.4079 18.907C36.357 18.907 37.1267 18.1373 37.1267 17.1882C37.1267 16.2391 36.357 15.4695 35.4079 15.4695H35.4067C34.4576 15.4695 33.6885 16.2391 33.6885 17.1882C33.6885 18.1373 34.4586 18.907 35.4079 18.907V18.907Z" fill="black"/>
<path d="M42.2829 18.907C43.232 18.907 44.0017 18.1373 44.0017 17.1882C44.0017 16.2391 43.232 15.4695 42.2829 15.4695H42.2817C41.3326 15.4695 40.5635 16.2391 40.5635 17.1882C40.5635 18.1373 41.3336 18.907 42.2829 18.907V18.907Z" fill="black"/>
<path d="M56.0329 18.9069C56.982 18.9069 57.7517 18.1372 57.7517 17.1881C57.7517 16.239 56.982 15.4694 56.0329 15.4694H56.0317C55.0826 15.4694 54.3135 16.239 54.3135 17.1881C54.3135 18.1372 55.0836 18.9069 56.0329 18.9069Z" fill="black"/>
<path d="M62.9079 18.9069C63.857 18.9069 64.6267 18.1372 64.6267 17.1881C64.6267 16.239 63.857 15.4694 62.9079 15.4694H62.9067C61.9576 15.4694 61.1885 16.239 61.1885 17.1881C61.1885 18.1372 61.9586 18.9069 62.9079 18.9069Z" fill="black"/>
<path d="M14.7829 22.3445H14.7815C13.8324 22.3445 13.0635 23.1141 13.0635 24.0632C13.0635 25.0123 13.8336 25.782 14.7829 25.782C15.7322 25.782 16.5017 25.0123 16.5017 24.0632C16.5017 23.1141 15.732 22.3445 14.7829 22.3445V22.3445Z" fill="black"/>
<path d="M21.6579 22.3445H21.6565C20.7074 22.3445 19.9385 23.1141 19.9385 24.0632C19.9385 25.0123 20.7086 25.782 21.6579 25.782C22.6072 25.782 23.3767 25.0123 23.3767 24.0632C23.3767 23.1141 22.607 22.3445 21.6579 22.3445V22.3445Z" fill="black"/>
<path d="M35.4079 25.782C36.357 25.782 37.1267 25.0123 37.1267 24.0632C37.1267 23.1141 36.357 22.3445 35.4079 22.3445H35.4067C34.4576 22.3445 33.6885 23.1141 33.6885 24.0632C33.6885 25.0123 34.4586 25.782 35.4079 25.782V25.782Z" fill="black"/>
<path d="M42.2829 25.782C43.232 25.782 44.0017 25.0123 44.0017 24.0632C44.0017 23.1141 43.232 22.3445 42.2829 22.3445H42.2817C41.3326 22.3445 40.5635 23.1141 40.5635 24.0632C40.5635 25.0123 41.3336 25.782 42.2829 25.782V25.782Z" fill="black"/>
<path d="M49.1579 25.7816C50.107 25.7816 50.8767 25.012 50.8767 24.0629C50.8767 23.1138 50.107 22.3441 49.1579 22.3441H49.1567C48.2076 22.3441 47.4385 23.1138 47.4385 24.0629C47.4385 25.012 48.2086 25.7816 49.1579 25.7816Z" fill="black"/>
<path d="M62.9079 25.7816C63.857 25.7816 64.6267 25.012 64.6267 24.0629C64.6267 23.1138 63.857 22.3441 62.9079 22.3441H62.9067C61.9576 22.3441 61.1885 23.1138 61.1885 24.0629C61.1885 25.012 61.9586 25.7816 62.9079 25.7816Z" fill="black"/>
<path d="M14.7829 29.2195H14.7815C13.8324 29.2195 13.0635 29.9891 13.0635 30.9382C13.0635 31.8873 13.8336 32.657 14.7829 32.657C15.7322 32.657 16.5017 31.8873 16.5017 30.9382C16.5017 29.9891 15.732 29.2195 14.7829 29.2195V29.2195Z" fill="black"/>
<path d="M21.6579 29.2195H21.6565C20.7074 29.2195 19.9385 29.9891 19.9385 30.9382C19.9385 31.8873 20.7086 32.657 21.6579 32.657C22.6072 32.657 23.3767 31.8873 23.3767 30.9382C23.3767 29.9891 22.607 29.2195 21.6579 29.2195V29.2195Z" fill="black"/>
<path d="M35.4079 32.657C36.357 32.657 37.1267 31.8873 37.1267 30.9382C37.1267 29.9891 36.357 29.2195 35.4079 29.2195H35.4067C34.4576 29.2195 33.6885 29.9891 33.6885 30.9382C33.6885 31.8873 34.4586 32.657 35.4079 32.657V32.657Z" fill="black"/>
<path d="M42.2829 32.657C43.232 32.657 44.0017 31.8873 44.0017 30.9382C44.0017 29.9891 43.232 29.2195 42.2829 29.2195H42.2817C41.3326 29.2195 40.5635 29.9891 40.5635 30.9382C40.5635 31.8873 41.3336 32.657 42.2829 32.657V32.657Z" fill="black"/>
<path d="M21.6579 36.0945H21.6565C20.7074 36.0945 19.9385 36.8641 19.9385 37.8132C19.9385 38.7623 20.7086 39.532 21.6579 39.532C22.6072 39.532 23.3767 38.7623 23.3767 37.8132C23.3767 36.8641 22.607 36.0945 21.6579 36.0945V36.0945Z" fill="black"/>
<path d="M28.5329 36.0945H28.5315C27.5824 36.0945 26.8135 36.8641 26.8135 37.8132C26.8135 38.7623 27.5836 39.532 28.5329 39.532C29.4822 39.532 30.2517 38.7623 30.2517 37.8132C30.2517 36.8641 29.482 36.0945 28.5329 36.0945V36.0945Z" fill="black"/>
<path d="M42.2829 39.532C43.232 39.532 44.0017 38.7623 44.0017 37.8132C44.0017 36.8641 43.232 36.0945 42.2829 36.0945H42.2817C41.3326 36.0945 40.5635 36.8641 40.5635 37.8132C40.5635 38.7623 41.3336 39.532 42.2829 39.532V39.532Z" fill="black"/>
<path d="M14.7829 42.9695H14.7815C13.8324 42.9695 13.0635 43.7391 13.0635 44.6882C13.0635 45.6373 13.8336 46.407 14.7829 46.407C15.7322 46.407 16.5017 45.6373 16.5017 44.6882C16.5017 43.7391 15.732 42.9695 14.7829 42.9695V42.9695Z" fill="black"/>
<path d="M28.5329 42.9695H28.5315C27.5824 42.9695 26.8135 43.7391 26.8135 44.6882C26.8135 45.6373 27.5836 46.407 28.5329 46.407C29.4822 46.407 30.2517 45.6373 30.2517 44.6882C30.2517 43.7391 29.482 42.9695 28.5329 42.9695V42.9695Z" fill="black"/>
<path d="M35.4079 46.407C36.357 46.407 37.1267 45.6373 37.1267 44.6882C37.1267 43.7391 36.357 42.9695 35.4079 42.9695H35.4067C34.4576 42.9695 33.6885 43.7391 33.6885 44.6882C33.6885 45.6373 34.4586 46.407 35.4079 46.407V46.407Z" fill="black"/>
<path d="M42.2829 46.407C43.232 46.407 44.0017 45.6373 44.0017 44.6882C44.0017 43.7391 43.232 42.9695 42.2829 42.9695H42.2817C41.3326 42.9695 40.5635 43.7391 40.5635 44.6882C40.5635 45.6373 41.3336 46.407 42.2829 46.407V46.407Z" fill="black"/>
<path d="M14.7829 49.8442H14.7815C13.8324 49.8442 13.0635 50.6139 13.0635 51.563C13.0635 52.5121 13.8336 53.2817 14.7829 53.2817C15.7322 53.2817 16.5017 52.5121 16.5017 51.563C16.5017 50.6139 15.732 49.8442 14.7829 49.8442V49.8442Z" fill="black"/>
<path d="M21.6579 49.8442H21.6565C20.7074 49.8442 19.9385 50.6139 19.9385 51.563C19.9385 52.5121 20.7086 53.2817 21.6579 53.2817C22.6072 53.2817 23.3767 52.5121 23.3767 51.563C23.3767 50.6139 22.607 49.8442 21.6579 49.8442V49.8442Z" fill="black"/>
<path d="M28.5329 49.8442H28.5315C27.5824 49.8442 26.8135 50.6139 26.8135 51.563C26.8135 52.5121 27.5837 53.2817 28.5329 53.2817C29.4822 53.2817 30.2517 52.5121 30.2517 51.563C30.2517 50.6139 29.482 49.8442 28.5329 49.8442V49.8442Z" fill="black"/>
<path d="M14.7829 56.7189H14.7815C13.8324 56.7189 13.0635 57.4885 13.0635 58.4376C13.0635 59.3867 13.8336 60.1564 14.7829 60.1564C15.7322 60.1564 16.5017 59.3867 16.5017 58.4376C16.5017 57.4885 15.732 56.7189 14.7829 56.7189V56.7189Z" fill="black"/>
<path d="M28.5329 56.7189H28.5315C27.5824 56.7189 26.8135 57.4885 26.8135 58.4376C26.8135 59.3867 27.5837 60.1564 28.5329 60.1564C29.4822 60.1564 30.2517 59.3867 30.2517 58.4376C30.2517 57.4885 29.482 56.7189 28.5329 56.7189V56.7189Z" fill="black"/>
<path d="M38.7388 3.4375C39.6879 3.4375 40.4575 2.66784 40.4575 1.71875C40.4575 0.769656 39.6879 0 38.7388 0H38.7376C37.7885 0 37.0195 0.769656 37.0195 1.71875C37.0195 2.66784 37.7895 3.4375 38.7388 3.4375V3.4375Z" fill="black"/>
</svg>
