<svg width="88" height="88" viewBox="0 0 88 88" fill="none" xmlns="http://www.w3.org/2000/svg">
<path d="M73.3039 76.9818L72.0043 48.391C71.8749 45.5434 69.6108 43.3128 66.8498 43.3128H54.8188C54.8188 39.522 51.7345 36.4379 47.9438 36.4379H39.3496V22.6874C39.3496 21.8047 39.1805 20.9611 38.8761 20.1851C43.1176 18.9036 46.2247 14.9519 46.2247 10.3125C46.2247 4.62617 41.5986 0 35.9123 0C30.226 0 25.5998 4.62617 25.5998 10.3125C25.5998 12.9311 26.5683 15.3795 28.2756 17.2497C26.6496 18.5081 25.5998 20.4769 25.5998 22.6874V43.3128V59.648L10.9116 74.336C10.5894 74.6583 10.4082 75.0955 10.4082 75.5513C10.4082 76.0071 10.5894 76.4444 10.9116 76.7666L18.2037 84.0588C18.5394 84.3944 18.9792 84.5622 19.4191 84.5622C19.8589 84.5622 20.2989 84.3944 20.6344 84.0588L25.5998 79.0933V86.2809C25.5998 87.2302 26.3693 87.9997 27.3186 87.9997H37.631C38.5803 87.9997 39.3498 87.2302 39.3498 86.2809V75.9681C39.3498 75.0188 38.5803 74.2494 37.631 74.2494C36.6818 74.2494 35.9123 75.0188 35.9123 75.9681V84.5622H29.0373V49.2631C30.0493 49.8501 31.223 50.188 32.4748 50.188H35.9123V60.4996C35.9123 61.4489 36.6818 62.2183 37.631 62.2183C38.5803 62.2183 39.3498 61.4489 39.3498 60.4996V50.188H47.8644L46.2273 86.2031C46.1842 87.1513 46.9179 87.955 47.8661 87.9981C47.8928 87.9993 47.9193 87.9998 47.9456 87.9998C48.8587 87.9998 49.6193 87.2807 49.661 86.3591L50.9009 59.0823H69.0495L69.8755 77.2513C67.8496 78.0906 66.4205 80.0881 66.4205 82.4141C66.4205 85.4941 68.9263 88 72.0064 88C75.0866 88 77.5925 85.4941 77.5925 82.4141C77.5923 79.7808 75.76 77.5688 73.3039 76.9818ZM29.0371 10.3125C29.0371 6.5216 32.1213 3.43749 35.9121 3.43749C39.703 3.43749 42.7871 6.5216 42.7871 10.3125C42.7871 13.8758 40.0383 16.8308 36.5505 17.1553C35.409 16.3121 33.9993 15.8124 32.4745 15.8124C32.2577 15.8124 32.0437 15.8238 31.8322 15.8434C30.0732 14.5486 29.0371 12.5219 29.0371 10.3125ZM19.4189 80.413L14.5574 75.5515L25.5997 64.5094V74.232L19.4189 80.413ZM32.4746 46.7505C30.5792 46.7505 29.0371 45.2084 29.0371 43.313V22.6874C29.0371 20.792 30.5792 19.2499 32.4746 19.2499C34.3701 19.2499 35.9121 20.792 35.9121 22.6874V38.1566C35.9121 39.1059 36.6816 39.8754 37.6309 39.8754H47.9438C49.8393 39.8754 51.3813 41.4174 51.3813 43.3128V46.7503H32.4746V46.7505ZM51.057 55.645L51.305 50.188H53.1001C54.0492 50.188 54.8188 49.4185 54.8188 48.4692V46.7503H66.8498C67.7689 46.7503 68.5246 47.5396 68.5703 48.5471L68.8929 55.645H51.057ZM72.0062 84.5625C70.8215 84.5625 69.8578 83.5988 69.8578 82.4141C69.8578 81.2294 70.8215 80.2657 72.0062 80.2657C73.191 80.2657 74.1548 81.2295 74.1548 82.4141C74.1548 83.5986 73.1908 84.5625 72.0062 84.5625Z" fill="black"/>
<path d="M37.6309 66.5148C36.6816 66.5148 35.9121 67.2843 35.9121 68.2335V68.2347C35.9121 69.184 36.6816 69.9528 37.6309 69.9528C38.5801 69.9528 39.3496 69.1828 39.3496 68.2335C39.3496 67.2843 38.5801 66.5148 37.6309 66.5148Z" fill="black"/>
</svg>
