<svg width="88" height="88" viewBox="0 0 88 88" fill="none" xmlns="http://www.w3.org/2000/svg">
<g clip-path="url(#clip0)">
<path d="M24.2627 81.125C30.8967 81.125 36.2939 75.728 36.2939 69.0938C36.2939 62.4595 30.8967 57.0625 24.2627 57.0625C17.6287 57.0625 12.2314 62.4595 12.2314 69.0938C12.2314 75.728 17.6287 81.125 24.2627 81.125ZM24.2627 60.5C29.0013 60.5 32.8564 64.3552 32.8564 69.0938C32.8564 73.8323 29.0013 77.6875 24.2627 77.6875C19.5241 77.6875 15.6689 73.8323 15.6689 69.0938C15.6689 64.3552 19.5241 60.5 24.2627 60.5Z" fill="black"/>
<path d="M54.8046 65.2113C53.8383 61.6056 50.2373 58.7812 46.6065 58.7812H40.1009C38.7823 56.763 37.0893 55.0111 35.1205 53.6251H44.8883C45.8375 53.6251 46.607 52.8554 46.607 51.9064V46.7501C46.607 42.9593 43.5229 39.8752 39.732 39.8752H31.1378V36.4375C31.1378 36.2424 31.1277 36.0497 31.1117 35.8586C35.1935 34.4374 38.0129 30.5766 38.0129 26.1252C38.0129 20.4389 33.3868 15.8127 27.7005 15.8127C22.0142 15.8127 17.388 20.4389 17.388 26.1252C17.388 28.1903 18.0014 30.1773 19.135 31.8648C19.0052 32.01 18.8809 32.1602 18.7639 32.3161C17.9014 31.6668 16.8294 31.2813 15.6691 31.2813H12.2316H6.18749C5.23823 31.2813 4.46875 32.0509 4.46875 33C4.46875 33.9491 5.23823 34.7188 6.18749 34.7188H10.5131V56.1061C9.27951 57.4172 8.21836 58.9178 7.37704 60.5841C6.94924 61.4316 7.28938 62.4651 8.13672 62.8931C8.98406 63.3205 10.0177 62.9807 10.4457 62.1334C13.0953 56.8854 18.3897 53.6251 24.263 53.6251C32.7924 53.6251 39.7317 60.5644 39.7317 69.0938C39.7317 77.6232 32.7924 84.5625 24.263 84.5625C18.3892 84.5625 13.0944 81.3018 10.445 76.053C10.0174 75.2056 8.98355 74.8657 8.1362 75.2929C7.28869 75.7207 6.94855 76.7544 7.37635 77.6019C10.6136 84.0156 17.0842 88 24.263 88C33.5143 88 41.234 81.3206 42.8552 72.5311H42.8949L44.3957 78.1321C45.3619 81.7379 48.9629 84.5623 52.5936 84.5623H57.7498C58.2841 84.5623 58.7881 84.3138 59.1134 83.8899C59.4388 83.4659 59.5483 82.9149 59.4101 82.3988L54.8046 65.2113ZM39.7322 43.3126C41.6276 43.3126 43.1697 44.8547 43.1697 46.7501V50.1876H24.2628C22.3674 50.1876 20.8253 48.6456 20.8253 46.7501V36.4375C20.8253 34.5421 22.3674 33 24.2628 33C26.1583 33 27.7003 34.5421 27.7003 36.4375V41.5939C27.7003 42.543 28.4698 43.3126 29.4191 43.3126H39.7322ZM27.7005 19.2502C31.4913 19.2502 34.5755 22.3343 34.5755 26.1252C34.5755 29.094 32.6955 31.6687 29.974 32.6152C28.739 30.7758 26.64 29.5627 24.2628 29.5627C23.4662 29.5627 22.7015 29.7004 21.9894 29.9506C21.2342 28.826 20.8255 27.5016 20.8255 26.1254C20.8255 22.3343 23.9096 19.2502 27.7005 19.2502ZM17.3879 36.4375V46.7501C17.3879 48.3413 17.9327 49.8067 18.8438 50.9732C17.1036 51.4896 15.4575 52.2515 13.9504 53.2317V34.7188H15.6691C16.617 34.7188 17.3879 35.4898 17.3879 36.4375ZM52.5934 81.1248C50.5493 81.1248 48.2701 79.3105 47.7158 77.2425L45.8736 70.3675C45.6724 69.6161 44.9914 69.0936 44.2135 69.0936H43.169C43.169 66.6693 42.7098 64.3504 41.8746 62.2186H46.6063C48.6506 62.2186 50.9298 64.0329 51.4839 66.1009L55.5096 81.1248H52.5934Z" fill="black"/>
<path d="M24.2634 70.8125C25.2126 70.8125 25.9821 70.0428 25.9821 69.0938C25.9821 68.1447 25.2126 67.375 24.2634 67.375H24.2622C23.3129 67.375 22.5439 68.1447 22.5439 69.0938C22.5439 70.0428 23.3141 70.8125 24.2634 70.8125Z" fill="black"/>
<path d="M80.0938 0H50.8742C48.9788 0 47.4367 1.54206 47.4367 3.43733V20.0585L45.0038 22.4914C44.3558 23.1394 43.999 24.0025 43.999 24.9222C43.999 25.8416 44.3558 26.7047 45.0038 27.3529L47.4367 29.7856V32.6566C47.4367 34.5519 48.9788 36.0939 50.8742 36.0939H80.0938C81.9893 36.0939 83.5313 34.5519 83.5313 32.6566V3.43733C83.5313 1.54206 81.9893 0 80.0938 0V0ZM50.8744 32.6568V29.0737C50.8744 28.6179 50.6934 28.1808 50.3709 27.8584L47.4346 24.9222L50.3709 21.9859C50.6932 21.6635 50.8744 21.2264 50.8744 20.7706V3.4375L80.094 3.43733V32.6564L50.8744 32.6568Z" fill="black"/>
<path d="M65.4834 7.73511C64.5341 7.73511 63.7646 8.50528 63.7646 9.45455C63.7646 10.4038 64.5341 11.1733 65.4834 11.1733C66.4327 11.1733 67.2021 10.4036 67.2021 9.45455V9.45334C67.2021 8.50425 66.4327 7.73511 65.4834 7.73511Z" fill="black"/>
<path d="M65.4834 15.4695C64.5341 15.4695 63.7646 16.2391 63.7646 17.1882V26.6407C63.7646 27.5898 64.5341 28.3594 65.4834 28.3594C66.4327 28.3594 67.2021 27.5898 67.2021 26.6407V17.1882C67.2021 16.239 66.4327 15.4695 65.4834 15.4695Z" fill="black"/>
<path d="M8.79395 69.0923C8.79395 68.1432 8.02446 67.3735 7.0752 67.3735C6.12593 67.3735 5.35645 68.1432 5.35645 69.0923V69.0937C5.35645 70.0428 6.12593 70.8117 7.0752 70.8117C8.02446 70.8117 8.79395 70.0416 8.79395 69.0923Z" fill="black"/>
</g>
<defs>
<clipPath id="clip0">
<rect width="88" height="88" fill="white"/>
</clipPath>
</defs>
</svg>
