<svg width="56" height="88" viewBox="0 0 56 88" fill="none" xmlns="http://www.w3.org/2000/svg">
<path d="M11.6709 39.5321H23.1358L25.5687 41.9652C26.2389 42.635 27.1192 42.9701 27.9994 42.9701C28.8795 42.9701 29.7599 42.6351 30.43 41.965L32.8629 39.5321H44.3277C46.2229 39.5321 47.765 37.99 47.765 36.0946V3.43733C47.765 1.54206 46.2229 0 44.3277 0H11.6709C9.77546 0 8.2334 1.54206 8.2334 3.43733V36.0946C8.2334 37.99 9.77546 39.5321 11.6709 39.5321ZM11.6709 3.4375L44.3275 3.43733L44.3277 36.0946H32.1508C31.695 36.0946 31.258 36.2758 30.9355 36.598L27.9994 39.5343L25.0632 36.598C24.741 36.2758 24.3037 36.0946 23.8479 36.0946H11.6709V3.4375Z" fill="black"/>
<path d="M25.8586 25.3908H30.9471L33.5892 30.9549C33.8738 31.5544 34.4781 31.9365 35.1417 31.9365H36.6855C37.6346 31.9365 38.4043 31.1668 38.4043 30.2177C38.4043 29.2686 37.6346 28.499 36.6855 28.499H36.2283L33.5863 22.9349C33.3016 22.3354 32.6973 21.9533 32.0337 21.9533H27.5772V18.8451H31.3544C32.3035 18.8451 33.0732 18.0755 33.0732 17.1264C33.0732 16.1773 32.3035 15.4076 31.3544 15.4076H27.5772V14.4711C27.5772 13.522 26.8075 12.7523 25.8584 12.7523C24.9093 12.7523 24.1396 13.522 24.1396 14.4711V23.6721C24.1398 24.6211 24.9093 25.3908 25.8586 25.3908Z" fill="black"/>
<path d="M29.38 31.1487C30.2387 30.7443 30.6072 29.7202 30.2026 28.8614C29.798 28.0025 28.7745 27.634 27.9153 28.0388C27.2764 28.3396 26.5654 28.4987 25.859 28.4987C23.1975 28.4987 21.0322 26.3333 21.0322 23.6718C21.0322 22.6227 21.3818 21.5852 22.0167 20.7504C22.5913 19.9949 22.4445 18.9165 21.689 18.3419C20.9334 17.7672 19.8547 17.9143 19.2805 18.6697C18.1935 20.0992 17.5947 21.8755 17.5947 23.6718C17.5947 28.2289 21.3021 31.9362 25.859 31.9362C27.0685 31.9364 28.286 31.6641 29.38 31.1487Z" fill="black"/>
<path d="M25.8601 11.0332C26.8092 11.0332 27.5788 10.2635 27.5788 9.31445C27.5788 8.36536 26.8092 7.5957 25.8601 7.5957H25.8587C24.9096 7.5957 24.1406 8.36536 24.1406 9.31445C24.1406 10.2635 24.9108 11.0332 25.8601 11.0332Z" fill="black"/>
<path d="M51.7334 64.1297L48.5734 51.4896C47.8314 48.5219 45.9229 46.7504 43.4686 46.7504H35.7337C34.7846 46.7504 34.0149 47.52 34.0149 48.4691C34.0149 49.4182 34.7846 50.1879 35.7337 50.1879H43.4684C44.5438 50.1879 45.0392 51.5259 45.2385 52.3236L48.1422 63.9379H7.85728L10.7609 52.3236C10.9603 51.5259 11.4555 50.1879 12.5311 50.1879H20.2648C21.2139 50.1879 21.9835 49.4182 21.9835 48.4691C21.9835 47.52 21.2139 46.7504 20.2648 46.7504H12.5311C10.0765 46.7504 8.16803 48.5222 7.42622 51.4896L4.26612 64.1297C2.0962 64.7381 0.5 66.7325 0.5 69.0941V79.4064V84.5629C0.5 86.4581 2.04206 88.0002 3.9375 88.0002H9.09375C10.989 88.0002 12.5311 86.4581 12.5311 84.5629V81.1254V81.1252H43.4686V81.1254V84.5629C43.4686 86.4581 45.0106 88.0002 46.9061 88.0002H52.0623C53.9578 88.0002 55.4998 86.4581 55.4998 84.5629V79.4064V69.0941C55.4996 66.7325 53.9033 64.7381 51.7334 64.1297ZM3.93733 69.0941C3.93733 68.1473 4.70698 67.3767 5.65367 67.3755C5.65487 67.3755 5.65608 67.3757 5.65728 67.3757C5.66003 67.3757 5.66261 67.3754 5.66519 67.3754H50.3341C50.3369 67.3754 50.3394 67.3757 50.342 67.3757C50.3432 67.3757 50.3444 67.3755 50.3456 67.3755C51.2923 67.3767 52.0621 68.1473 52.0621 69.0941V77.6877H3.93733V69.0941ZM9.09358 84.5627L3.93733 84.5629V81.1252H9.0934V81.1254L9.09358 84.5627ZM46.9059 84.5629V81.1254V81.1252H52.0621V84.5627L46.9059 84.5629Z" fill="black"/>
<path d="M46.9043 70.8129C45.9552 70.8129 45.1855 71.5825 45.1855 72.5316C45.1855 73.4807 45.9552 74.2504 46.9043 74.2504H46.9055C47.8546 74.2504 48.6237 73.4807 48.6237 72.5316C48.6237 71.5825 47.8536 70.8129 46.9043 70.8129Z" fill="black"/>
<path d="M9.09542 70.8129H9.09404C8.14495 70.8129 7.37598 71.5825 7.37598 72.5316C7.37598 73.4807 8.14615 74.2504 9.09542 74.2504C10.0447 74.2504 10.8142 73.4807 10.8142 72.5316C10.8142 71.5825 10.0445 70.8129 9.09542 70.8129Z" fill="black"/>
<path d="M39.1708 70.8129H16.8291C15.88 70.8129 15.1104 71.5825 15.1104 72.5316C15.1104 73.4807 15.88 74.2504 16.8291 74.2504H39.1708C40.1199 74.2504 40.8895 73.4807 40.8895 72.5316C40.8895 71.5825 40.1201 70.8129 39.1708 70.8129Z" fill="black"/>
<path d="M27.9983 46.7504C27.0492 46.7504 26.2803 47.52 26.2803 48.4691C26.2803 49.4182 27.0503 50.1879 27.9995 50.1879C28.9488 50.1879 29.7183 49.4182 29.7183 48.4691C29.7183 47.52 28.9486 46.7504 27.9995 46.7504H27.9983Z" fill="black"/>
</svg>
