<svg width="109" height="60" viewBox="0 0 109 60" fill="none" xmlns="http://www.w3.org/2000/svg">
<path d="M62 47.5V51V51C62 54.866 58.866 58 55 58L12 58C6.47715 58 2 53.5228 2 48L2 12C2 6.47715 6.47715 2 12 2L55 2C58.866 2 62 5.13401 62 9V9V12.5" stroke="black" stroke-width="3.5"/>
<path d="M32.444 24.236V28.114H30.554L30.358 26H24.282L24.086 28.114H22.182V24.236H23.232C23.5867 23.284 23.8527 22.3227 24.03 21.352C24.2167 20.372 24.3567 19.392 24.45 18.412C24.506 17.8053 24.7393 17.3107 25.15 16.928C25.5607 16.536 26.0927 16.34 26.746 16.34H31.142V24.236H32.444ZM26.9 18.846C26.816 19.7047 26.7227 20.456 26.62 21.1C26.5173 21.7347 26.3913 22.304 26.242 22.808C26.0927 23.3027 25.906 23.7787 25.682 24.236H28.524V18.104H27.628C27.18 18.104 26.9373 18.3513 26.9 18.846ZM37.4817 16.144C38.2844 16.144 38.961 16.2233 39.5117 16.382C40.0624 16.5407 40.5057 16.8113 40.8417 17.194C41.187 17.5673 41.4344 18.0807 41.5837 18.734C41.7424 19.378 41.8217 20.19 41.8217 21.17C41.8217 22.15 41.7424 22.9667 41.5837 23.62C41.4344 24.264 41.187 24.7773 40.8417 25.16C40.5057 25.5333 40.0624 25.7993 39.5117 25.958C38.961 26.1167 38.2844 26.196 37.4817 26.196C36.679 26.196 36.0024 26.1167 35.4517 25.958C34.901 25.7993 34.453 25.5333 34.1077 25.16C33.7717 24.7773 33.5244 24.264 33.3657 23.62C33.2164 22.9667 33.1417 22.15 33.1417 21.17C33.1417 20.19 33.2164 19.378 33.3657 18.734C33.5244 18.0807 33.7717 17.5673 34.1077 17.194C34.453 16.8113 34.901 16.5407 35.4517 16.382C36.0024 16.2233 36.679 16.144 37.4817 16.144ZM37.4817 18.146C37.071 18.146 36.749 18.23 36.5157 18.398C36.2917 18.566 36.133 18.8693 36.0397 19.308C35.9464 19.7467 35.8997 20.3673 35.8997 21.17C35.8997 21.9727 35.9464 22.5933 36.0397 23.032C36.133 23.4707 36.2917 23.774 36.5157 23.942C36.749 24.11 37.071 24.194 37.4817 24.194C37.8924 24.194 38.2097 24.11 38.4337 23.942C38.667 23.774 38.8257 23.4707 38.9097 23.032C39.003 22.5933 39.0497 21.9727 39.0497 21.17C39.0497 20.3673 39.003 19.7467 38.9097 19.308C38.8257 18.8693 38.667 18.566 38.4337 18.398C38.2097 18.23 37.8924 18.146 37.4817 18.146ZM47.2275 16.172C47.7128 16.172 48.1235 16.186 48.4595 16.214C48.8048 16.2327 49.1175 16.27 49.3975 16.326C49.6775 16.3727 49.9715 16.438 50.2795 16.522L50.0835 18.454C49.7661 18.4447 49.4721 18.4353 49.2015 18.426C48.9308 18.4167 48.6415 18.412 48.3335 18.412C48.0255 18.4027 47.6568 18.398 47.2275 18.398C46.8355 18.398 46.5321 18.4773 46.3175 18.636C46.1028 18.7947 45.9535 19.0747 45.8695 19.476C45.7855 19.8773 45.7435 20.442 45.7435 21.17C45.7435 21.898 45.7855 22.4627 45.8695 22.864C45.9535 23.2653 46.1028 23.5453 46.3175 23.704C46.5321 23.8627 46.8355 23.942 47.2275 23.942C47.9088 23.942 48.4735 23.9373 48.9215 23.928C49.3788 23.9093 49.8361 23.872 50.2935 23.816L50.4895 25.734C50.0228 25.8927 49.5421 26.0047 49.0475 26.07C48.5621 26.1353 47.9555 26.168 47.2275 26.168C46.1915 26.168 45.3608 26.0093 44.7355 25.692C44.1195 25.3653 43.6715 24.838 43.3915 24.11C43.1208 23.382 42.9855 22.402 42.9855 21.17C42.9855 19.938 43.1208 18.958 43.3915 18.23C43.6715 17.502 44.1195 16.9793 44.7355 16.662C45.3608 16.3353 46.1915 16.172 47.2275 16.172ZM59.193 16.34V18.342H56.407V26H53.775V18.342H50.975V16.34H59.193ZM62.0669 16.34L63.3409 21.226C63.3689 21.3473 63.4529 21.408 63.5929 21.408H63.8169L65.2589 16.34H67.9469L65.7349 23.438C65.5576 24.0073 65.3662 24.488 65.1609 24.88C64.9556 25.2627 64.6942 25.5613 64.3769 25.776C64.0689 25.9907 63.6722 26.1213 63.1869 26.168C62.9349 26.196 62.6362 26.2007 62.2909 26.182C61.9549 26.1633 61.6236 26.1353 61.2969 26.098C60.9796 26.0607 60.7089 26.0187 60.4849 25.972L60.7649 24.166C61.2876 24.1847 61.7029 24.194 62.0109 24.194C62.3189 24.1847 62.5522 24.138 62.7109 24.054C62.8789 23.9607 63.0049 23.7927 63.0889 23.55L63.1589 23.284H62.6129C62.2022 23.284 61.8942 23.1813 61.6889 22.976C61.4836 22.7613 61.3296 22.4767 61.2269 22.122L59.3649 16.34H62.0669ZM76.9122 16.34V26H74.2802V18.104H71.4382V26H68.8062V16.34H76.9122ZM81.3366 16.34V19.924H84.2206V16.34H86.8526V26H84.2206V21.814H81.3366V26H78.7046V16.34H81.3366ZM96.988 16.34V26H94.496V20.974C94.496 20.7407 94.5054 20.5073 94.524 20.274C94.552 20.0407 94.5894 19.8027 94.636 19.56H94.538C94.4634 19.8027 94.3794 20.0407 94.286 20.274C94.1927 20.5073 94.0854 20.7313 93.964 20.946L91.164 26H88.644V16.34H91.136V21.226C91.136 21.4593 91.122 21.702 91.094 21.954C91.0754 22.206 91.0474 22.458 91.01 22.71H91.094C91.2714 22.206 91.472 21.744 91.696 21.324L94.482 16.34H96.988ZM107.119 16.34V26H104.627V20.974C104.627 20.7407 104.636 20.5073 104.655 20.274C104.683 20.0407 104.72 19.8027 104.767 19.56H104.669C104.594 19.8027 104.51 20.0407 104.417 20.274C104.324 20.5073 104.216 20.7313 104.095 20.946L101.295 26H98.7749V16.34H101.267V21.226C101.267 21.4593 101.253 21.702 101.225 21.954C101.206 22.206 101.178 22.458 101.141 22.71H101.225C101.402 22.206 101.603 21.744 101.827 21.324L104.613 16.34H107.119ZM103.885 13.344H105.467C105.523 13.736 105.462 14.1093 105.285 14.464C105.108 14.8187 104.828 15.108 104.445 15.332C104.072 15.5467 103.61 15.654 103.059 15.654C102.518 15.654 102.051 15.5467 101.659 15.332C101.276 15.108 100.996 14.8187 100.819 14.464C100.642 14.1093 100.581 13.736 100.637 13.344H102.219C102.182 13.7733 102.238 14.0673 102.387 14.226C102.536 14.3847 102.76 14.464 103.059 14.464C103.348 14.464 103.568 14.3847 103.717 14.226C103.866 14.0673 103.922 13.7733 103.885 13.344ZM30.862 33.34V43H28.23V35.104H27.334C26.83 35.104 26.564 35.3467 26.536 35.832C26.452 36.8307 26.354 37.7687 26.242 38.646C26.1393 39.514 25.9853 40.2373 25.78 40.816C25.5747 41.4787 25.2947 41.9873 24.94 42.342C24.5947 42.6967 24.1887 42.9253 23.722 43.028C23.2553 43.1307 22.742 43.14 22.182 43.056L21.986 41.026C22.3127 40.9793 22.5927 40.9 22.826 40.788C23.0593 40.676 23.2367 40.4473 23.358 40.102C23.5353 39.654 23.6707 39.0753 23.764 38.366C23.8667 37.6473 23.96 36.728 24.044 35.608C24.1373 34.096 24.9353 33.34 26.438 33.34H30.862ZM34.4497 33.34L35.7237 38.226C35.7517 38.3473 35.8357 38.408 35.9757 38.408H36.1997L37.6417 33.34H40.3297L38.1177 40.438C37.9404 41.0073 37.7491 41.488 37.5437 41.88C37.3384 42.2627 37.0771 42.5613 36.7597 42.776C36.4517 42.9907 36.0551 43.1213 35.5697 43.168C35.3177 43.196 35.0191 43.2007 34.6737 43.182C34.3377 43.1633 34.0064 43.1353 33.6797 43.098C33.3624 43.0607 33.0917 43.0187 32.8677 42.972L33.1477 41.166C33.6704 41.1847 34.0857 41.194 34.3937 41.194C34.7017 41.1847 34.9351 41.138 35.0937 41.054C35.2617 40.9607 35.3877 40.7927 35.4717 40.55L35.5417 40.284H34.9957C34.5851 40.284 34.2771 40.1813 34.0717 39.976C33.8664 39.7613 33.7124 39.4767 33.6097 39.122L31.7477 33.34H34.4497ZM41.189 43V33.34H43.821V41.236H46.467V33.34H49.099V41.236H50.191V45.114H48.301L48.105 43H41.189ZM55.0718 36.784C56.0052 36.784 56.7425 36.882 57.2838 37.078C57.8345 37.2647 58.2265 37.5913 58.4598 38.058C58.6932 38.5153 58.8098 39.1453 58.8098 39.948C58.8098 40.7693 58.6932 41.4133 58.4598 41.88C58.2358 42.3373 57.8812 42.6593 57.3958 42.846C56.9105 43.0233 56.2898 43.112 55.5338 43.112C54.8992 43.112 54.3485 43.1073 53.8818 43.098C53.4152 43.098 52.9858 43.0887 52.5938 43.07C52.2018 43.0513 51.8005 43.028 51.3898 43H51.3198V33.34H53.9518V36.784H55.0718ZM55.0718 38.436H53.9518V41.236C54.2972 41.2453 54.6705 41.25 55.0718 41.25C55.3705 41.25 55.5992 41.2127 55.7578 41.138C55.9165 41.0633 56.0238 40.928 56.0798 40.732C56.1452 40.5267 56.1778 40.2373 56.1778 39.864C56.1778 39.304 56.1078 38.926 55.9678 38.73C55.8278 38.534 55.5292 38.436 55.0718 38.436ZM62.6878 33.34V35.916C62.6878 36.3173 62.6458 36.714 62.5618 37.106H63.0378C63.3832 37.106 63.6632 37.0453 63.8778 36.924C64.0925 36.8027 64.2745 36.602 64.4238 36.322C64.5732 36.0327 64.7178 35.6453 64.8578 35.16C64.9978 34.6747 65.1658 34.068 65.3618 33.34H68.0218C67.7605 34.208 67.5412 34.9267 67.3638 35.496C67.1865 36.056 67.0045 36.504 66.8178 36.84C66.6312 37.176 66.3978 37.4233 66.1178 37.582C65.8378 37.7407 65.4598 37.8527 64.9838 37.918V38.002C65.3758 38.058 65.7072 38.142 65.9778 38.254C66.2485 38.366 66.4772 38.5293 66.6638 38.744C66.8598 38.9587 67.0372 39.248 67.1958 39.612C67.3545 39.976 67.5178 40.4333 67.6858 40.984C67.8538 41.5347 68.0592 42.2067 68.3018 43H65.5578C65.3058 42.1227 65.0958 41.4133 64.9278 40.872C64.7692 40.3213 64.6105 39.9013 64.4518 39.612C64.2932 39.3227 64.1065 39.1267 63.8918 39.024C63.6865 38.912 63.4158 38.856 63.0798 38.856H62.5758C62.6132 39.0147 62.6412 39.1733 62.6598 39.332C62.6785 39.4813 62.6878 39.626 62.6878 39.766V43H60.0698V33.34H62.6878Z" fill="black"/>
<circle cx="77.5" cy="37.5" r="2.5" fill="black"/>
<circle cx="86.5" cy="37.5" r="2.5" fill="#9F00D7"/>
<circle cx="95.5" cy="37.5" r="2.5" fill="#1E00D7"/>
<circle cx="104.5" cy="37.5" r="2.5" fill="#FFF737"/>
</svg>
