<svg width="32" height="30" viewBox="0 0 32 30" fill="none" xmlns="http://www.w3.org/2000/svg">
<path d="M2.78252 0H26.4347C27.9688 0 29.217 1.28171 29.217 2.85713V16.6719L31.1864 18.6941C32.2711 19.8079 32.2713 21.6205 31.1864 22.7347L29.217 24.7567V27.1429C29.217 28.7183 27.9688 30 26.4347 30H2.78252C1.24824 30 0 28.7183 0 27.1429V2.85713C0 1.28171 1.24824 0 2.78252 0V0ZM2.78252 27.143L26.4345 27.1432V24.165C26.4345 23.7862 26.5812 23.4227 26.842 23.1549L29.2189 20.7145L26.842 18.2739C26.5812 18.0059 26.4345 17.6426 26.4345 17.2638L26.4347 2.85713H2.78252V27.143Z" fill="black"/>
<path d="M10.4352 12.5144C11.2035 12.5144 11.8265 11.8917 11.8265 11.1239C11.8265 9.59048 13.0747 8.34295 14.609 8.34295C16.1433 8.34295 17.3915 9.59048 17.3915 11.1239C17.3915 12.6573 16.1433 13.9048 14.609 13.9048C13.8407 13.9048 13.2177 14.5275 13.2177 15.2953V17.1524C13.2177 17.9202 13.8407 18.5429 14.609 18.5429C15.3772 18.5429 16.0003 17.9202 16.0003 17.1524V16.5097C18.3978 15.8908 20.174 13.7107 20.174 11.1239C20.174 8.05707 17.6776 5.56201 14.609 5.56201C11.5404 5.56201 9.04395 8.05707 9.04395 11.1239C9.04395 11.8917 9.66695 12.5144 10.4352 12.5144Z" fill="black"/>
<path d="M14.6096 20.8569H14.6086C13.8404 20.8569 13.2178 21.4796 13.2178 22.2474C13.2178 23.0152 13.8412 23.6379 14.6096 23.6379C15.378 23.6379 16.0009 23.0152 16.0009 22.2474C16.0009 21.4796 15.3779 20.8569 14.6096 20.8569Z" fill="black"/>
</svg>
